# xmcd
# 
# Track frame offsets:
#     150
#     18372
#     39202
#     54487
#     72785
#     96140
#     117342
#     139455
#     168060
#     187097
#     203307
#     223880
#     243187
#     262412
# 
# Disc length: 3870
# 
# Revision: 3
# Processed by: cddbd v1.5.2PL0 Copyright (c) Steve Scherf et al.
# Submitted via: fre:ac v1.0.17
# 
DISCID=c70f1c0e
DTITLE=THE ALFEE - NON STOP
DYEAR=1986
DGENRE=Rock
TTITLE0=SWEET HARD DREAMER
TTITLE1=鋼鉄の巨人
TTITLE2=世にも悲しい男の物語
TTITLE3=二人のSEASON
TTITLE4=夜明けのLANDING BAHN
TTITLE5=真夜中を突っ走れ
TTITLE6=STARSHIP
TTITLE7=SWEET and TRARS
TTITLE8=メリーアン
TTITLE9=オールオーバー・イエスタデイ
TTITLE10=夢よ急げ
TTITLE11=星空のディスタンス
TTITLE12=悲しき墓標
TTITLE13=Rockdom 風に吹かれて
EXTD=YEAR: 1986
EXTT0=
EXTT1=
EXTT2=
EXTT3=
EXTT4=
EXTT5=
EXTT6=
EXTT7=
EXTT8=
EXTT9=
EXTT10=
EXTT11=
EXTT12=
EXTT13=
PLAYORDER=
